<svg width="141" height="142" xmlns="http://www.w3.org/2000/svg">
 <!-- Created with Method Draw - http://github.com/duopixel/Method-Draw/ -->
 <g>
  <title>Layer 1</title>
  <!-- the middle -->
  <path id="svg_11" d="m64.75073,20.25273c-24.30069,0 -43.99976,20.14812 -43.99976,45.00252c0,24.85309 19.69907,44.99982 43.99976,44.99982c24.30005,0 44.00034,-20.14673 44.00034,-44.99982c0,-24.8544 -19.70029,-45.00252 -44.00034,-45.00252zm-7.06888,75.11409l-10.70532,-10.9585l18.73013,-19.15576l-18.73013,-19.15649l10.70532,-10.94847l29.43811,30.10497l-29.43811,30.11426z" fill-opacity="null" stroke-opacity="null" stroke-width="1.5" stroke="#000" fill="#009933"/> 
  <!-- arrows -->
  <path id="svg_12" d="m13.63034,42.87346c0.00314,-1.2682 1.09567,-9.04642 2.42886,-17.28322c4.1579,-25.68669 4.21915,-25.79987 9.4975,-17.61298l3.12308,4.84326l9.1329,-4.791c12.08011,-6.33624 26.4949,-8.6806 39.74478,-6.46329c5.62573,0.94179 11.59387,2.47208 13.26315,3.4003c3.31525,1.84293 3.10254,3.42668 -2.18121,16.24969c-2.89517,7.02753 -3.17358,7.22792 -8.17578,5.8916c-8.51437,-2.2739 -22.37869,-1.55806 -29.07217,1.50182l-6.27524,2.86876l4.4054,4.77814c2.42221,2.62804 3.79507,5.16956 3.05005,5.6474c-0.74509,0.47878 -9.8132,1.4122 -20.15106,2.07341c-15.50934,0.9929 -18.79456,0.79985 -18.79025,-1.1039l0,0zm79.86407,70.82277l-6.71863,-9.24722l6.1167,-6.14633c6.29636,-6.32642 10.83734,-15.20889 12.8378,-25.11058l1.14221,-5.65048l-6.58444,1.09407c-3.62228,0.60164 -6.60748,0.52368 -6.63461,-0.1736c-0.1275,-3.25632 17.09091,-35.34845 18.76572,-34.97424c2.63138,0.58655 29.33005,24.6147 29.33005,26.396c0,0.79568 -2.80624,1.91222 -6.23572,2.48282l-6.23532,1.03554l-0.61472,11.04848c-0.78992,14.17003 -7.97565,30.52534 -17.98032,40.9221c-4.00854,4.1637 -8.00299,7.5704 -8.8786,7.5704c-0.87582,0 -4.61551,-4.16153 -8.31012,-9.24695l0,0zm-60.65039,25.91815c0,-1.02301 1.05634,-3.98053 2.34528,-6.57227c2.34088,-4.70331 2.32697,-4.72681 -6.39874,-10.74747c-13.65308,-9.4187 -23.80026,-26.13773 -26.99319,-44.46954l-1.04657,-6.00995l7.46149,-1.06323c15.38153,-2.18987 15.52234,-2.12372 18.60248,8.76895c2.07782,7.35065 4.63467,11.75555 10.14548,17.48175c4.05353,4.21085 7.9335,7.2919 8.62598,6.84711c0.6925,-0.44373 1.69296,-3.06946 2.22552,-5.83499c0.53198,-2.7644 1.64212,-5.02661 2.46609,-5.02661c1.89166,0 19.70972,29.19235 19.99237,32.75562c0.18906,2.37955 -9.44238,6.50055 -34.5448,14.77908c-1.60098,0.52783 -2.88138,0.12372 -2.88138,-0.90845l0,0z" fill-opacity="null" stroke-opacity="null" stroke-width="1.5" stroke="#000" fill="#fff"/>
 </g>
</svg>